<?xml version="1.0" encoding="UTF-8" standalone="no"?>
<svg
   xmlns:dc="http://purl.org/dc/elements/1.1/"
   xmlns:cc="http://creativecommons.org/ns#"
   xmlns:rdf="http://www.w3.org/1999/02/22-rdf-syntax-ns#"
   xmlns:svg="http://www.w3.org/2000/svg"
   xmlns="http://www.w3.org/2000/svg"
   xmlns:sodipodi="http://sodipodi.sourceforge.net/DTD/sodipodi-0.dtd"
   xmlns:inkscape="http://www.inkscape.org/namespaces/inkscape"
   height="300px"
   width="300px"
   fill="#000000"
   version="1.1"
   x="0px"
   y="0px"
   viewBox="0 0 90 90"
   enable-background="new 0 0 90 90"
   xml:space="preserve"
   id="svg82"
   sodipodi:docname="connections.svg"
   inkscape:version="1.0.1 (3bc2e813f5, 2020-09-07)"><metadata
     id="metadata88"><rdf:RDF><cc:Work
         rdf:about=""><dc:format>image/svg+xml</dc:format><dc:type
           rdf:resource="http://purl.org/dc/dcmitype/StillImage" /><dc:title></dc:title></cc:Work></rdf:RDF></metadata><defs
     id="defs86" /><sodipodi:namedview
     pagecolor="#ffffff"
     bordercolor="#666666"
     borderopacity="1"
     objecttolerance="10"
     gridtolerance="10"
     guidetolerance="10"
     inkscape:pageopacity="0"
     inkscape:pageshadow="2"
     inkscape:window-width="1920"
     inkscape:window-height="1016"
     id="namedview84"
     showgrid="false"
     inkscape:zoom="0.95333333"
     inkscape:cx="150"
     inkscape:cy="150"
     inkscape:window-x="0"
     inkscape:window-y="27"
     inkscape:window-maximized="1"
     inkscape:current-layer="svg82" /><g
     id="g80"><path
       d="M56.7,31l4.6-6.1c1.2,0.5,2.6,0.8,4,0.6c4.5-0.5,7.8-4.6,7.3-9.1c-0.5-4.5-4.6-7.8-9.1-7.3c-4.5,0.5-7.8,4.6-7.3,9.1   c0.2,1.6,0.8,3,1.7,4.2l-4.6,6.1C54.5,29.2,55.6,30.1,56.7,31z"
       id="path68" /><path
       d="M80.3,53.5c-2.2,0.3-4.2,1.4-5.5,3l-13.1-5.9c-0.4,1.3-1,2.6-1.7,3.8l13.2,6c-0.1,0.7-0.2,1.5-0.1,2.3   c0.5,4.5,4.6,7.8,9.1,7.3c4.5-0.5,7.8-4.6,7.3-9.1C88.9,56.2,84.8,53,80.3,53.5z"
       id="path70" /><path
       d="M52.4,80.8c-0.4-3.5-3-6.3-6.2-7.1L46,63.4c-0.1,0-0.1,0-0.2,0c-1.3,0.1-2.6,0.1-3.9,0L42,73.8c-3.8,1.1-6.5,4.8-6,8.9   c0.5,4.5,4.6,7.8,9.1,7.3C49.6,89.4,52.9,85.4,52.4,80.8z"
       id="path72" /><path
       d="M15.6,52.3c-1.7-2.5-4.6-4-7.7-3.6c-4.5,0.5-7.8,4.6-7.3,9.1c0.5,4.5,4.6,7.8,9.1,7.3c4.4-0.5,7.7-4.4,7.3-8.9l9.7-3.4   c-0.6-1.2-1.1-2.5-1.4-3.9L15.6,52.3z"
       id="path74" /><path
       d="M28.3,16.3L34,28.6c1.2-0.7,2.4-1.3,3.8-1.8L32,14.6c2.1-1.7,3.3-4.4,3-7.3c-0.5-4.5-4.6-7.8-9.1-7.3   c-4.5,0.5-7.8,4.6-7.3,9.1c0.5,4.5,4.6,7.8,9.1,7.3C27.9,16.4,28.1,16.4,28.3,16.3z"
       id="path76" /><circle
       cx="43.7"
       cy="44.7"
       r="14.2"
       id="circle78" /></g><path
     style="fill:#ffffff;stroke-width:1.04895"
     d="m 136.31258,194.72442 c -23.94163,-5.15668 -41.022879,-29.70674 -36.774179,-52.85379 2.395529,-13.05092 9.716849,-24.34286 20.520399,-31.64938 23.38018,-15.812185 55.65307,-6.52294 68.0166,19.5775 3.1726,6.69762 3.35817,7.75594 3.35817,19.1523 0,11.39636 -0.18557,12.45468 -3.35817,19.1523 -6.61487,13.96455 -20.56828,24.59725 -35.45302,27.01574 -7.61102,1.23664 -8.87825,1.20598 -16.3098,-0.39467 z"
     id="path90"
     transform="scale(0.3)" /><path
     style="fill:#ffffff;stroke-width:1.04895"
     d="m 132.96708,193.13648 c -15.19921,-5.0318 -27.2268,-17.40952 -31.65366,-32.57512 -8.795916,-30.13318 19.50012,-62.041553 50.46735,-56.91012 15.62326,2.58886 28.64603,12.35377 35.4727,26.59863 3.46227,7.22455 3.65562,8.21368 3.65562,18.70118 0,10.4875 -0.19335,11.47663 -3.65562,18.70118 -7.60835,15.87596 -22.77977,26.23836 -39.61269,27.05631 -6.56802,0.31916 -10.10598,-0.0599 -14.6737,-1.57206 z"
     id="path92"
     transform="scale(0.3)" /><path
     style="fill:#ffffff;stroke-width:1.04895"
     d="m 24.468252,215.98152 c -6.204857,-1.14774 -9.780823,-3.243 -14.7671101,-8.65249 C 1.4909414,198.42202 0.29083722,187.07389 6.4235176,176.33597 15.339543,160.72459 35.822234,158.15996 48.229851,171.1014 l 3.691338,3.85016 15.888877,-5.54994 15.888878,-5.54994 2.165183,5.87769 c 1.190851,3.23273 2.065756,5.95259 1.944235,6.04414 -0.121522,0.0916 -7.056634,2.53446 -15.411358,5.42868 l -15.19041,5.26223 -1.296043,6.40347 c -1.67373,8.26952 -3.391006,11.46969 -8.755689,16.31636 -6.855618,6.19364 -14.144176,8.37741 -22.68661,6.79727 z"
     id="path94"
     transform="scale(0.3)" /><path
     style="fill:#ffffff;stroke-width:1.04895"
     d="m 142.13287,298.97624 c -16.24962,-4.17754 -24.96189,-19.18276 -20.25651,-34.88794 1.61008,-5.37397 8.95388,-13.51616 14.40986,-15.97647 l 4.27322,-1.92695 V 229.0365 211.88811 h 6.29371 6.2937 v 17.09697 17.09697 l 3.83111,1.38535 c 2.1071,0.76194 5.82986,3.22774 8.27279,5.47955 15.71989,14.49008 9.49847,39.27874 -11.41699,45.48996 -5.72471,1.70006 -6.9638,1.75717 -11.70089,0.53933 z"
     id="path96"
     transform="scale(0.3)" /><path
     style="fill:#ffffff;stroke-width:1.04895"
     d="M 262.71315,231.47614 C 251.071,226.99045 244.40559,217.82396 244.40559,206.29898 v -5.45256 l -20.71678,-9.35513 c -11.39423,-5.14531 -21.08135,-9.6575 -21.52694,-10.02707 -0.64019,-0.53098 2.6322,-9.77648 4.02875,-11.38245 0.17828,-0.20502 9.43963,3.74597 20.58075,8.77998 11.14113,5.03401 20.82269,9.37331 21.51457,9.64289 0.69188,0.26958 2.57999,-0.78091 4.1958,-2.33442 6.57743,-6.32386 16.28817,-8.84291 24.68205,-6.40274 8.62936,2.50863 13.69991,6.7491 17.63975,14.75206 2.98833,6.07015 3.32391,7.60723 2.83587,12.98936 -0.95124,10.49049 -6.89126,18.8242 -16.52053,23.17795 -5.26663,2.38123 -13.3719,2.72881 -18.40573,0.78929 z"
     id="path98"
     transform="scale(0.3)" /><path
     style="fill:#ffffff;stroke-width:1.04895"
     d="m 183.38777,98.269999 -4.89224,-3.478252 7.24277,-9.371398 c 3.98352,-5.154269 7.2486,-9.812402 7.25573,-10.351408 0.007,-0.539004 -1.00711,-3.087208 -2.25388,-5.662674 -5.16514,-10.66976 -3.134,-22.147279 5.43591,-30.717195 3.55454,-3.554537 6.54533,-5.434191 10.52883,-6.617163 6.92413,-2.056246 8.67957,-2.058471 15.54485,-0.0197 10.89357,3.235041 18.98851,14.165604 18.98851,25.640102 0,16.329838 -15.81322,29.697014 -31.0875,26.278781 -3.06551,-0.68603 -6.01276,-0.975941 -6.54945,-0.644246 -0.5367,0.331695 -3.94513,4.612205 -7.5743,9.512245 -3.62917,4.90004 -6.85691,8.909159 -7.17274,8.909159 -0.31584,0 -2.77576,-1.56521 -5.46649,-3.478248 z"
     id="path100"
     transform="scale(0.3)" /><path
     style="fill:#ffffff;stroke-width:1.04895"
     d="M 104.18434,74.104126 94.819056,54.020979 91.47716,54.361047 c -5.902017,0.600582 -14.655348,-2.692084 -19.867105,-7.47324 -6.067124,-5.565852 -8.882782,-11.754521 -8.882782,-19.523889 0,-7.287811 1.931381,-12.143915 7.109453,-17.8754236 4.658882,-5.1568246 7.887508,-6.9846627 15.051171,-8.52099335 6.469589,-1.38747847 14.313153,0.56112285 20.598603,5.11737635 4.90673,3.5568331 9.65744,11.7964686 10.54812,18.2946756 0.87787,6.404789 -1.80351,15.048607 -6.29651,20.29766 l -3.62609,4.236271 9.36849,19.762116 c 5.15267,10.869165 9.1528,19.977805 8.88918,20.241422 -0.26362,0.263618 -2.80598,1.557269 -5.64969,2.874778 l -5.17038,2.395472 z"
     id="path102"
     transform="scale(0.3)" /></svg>
