<svg height="300px" width="300px" fill="#FFFFFF" xmlns="http://www.w3.org/2000/svg" data-name="Layer 1" viewBox="0 0 64 64" x="0px" y="0px"><path d="M45.49,55.87h-27a2,2,0,0,1-2-1.95l-2-37h35L47.49,54A2,2,0,0,1,45.49,55.87Zm0-2v0Zm-28.89-35,1.91,35,27,0,1.91-35Z"/><path d="M51,18.86H13a1.41,1.41,0,0,1-1.5-1.35l0-.21L12.46,13a1.45,1.45,0,0,1,1.47-1.09H50.07A1.45,1.45,0,0,1,51.54,13l1,4.56A1.41,1.41,0,0,1,51,18.86Zm-37.34-2H50.34l-.65-3H14.31Z"/><rect x="23" y="23.44" width="2" height="25"/><rect x="31" y="23.44" width="2" height="25"/><rect x="39" y="23.44" width="2" height="25"/><path d="M39.27,12.86h-2V7.57H26.73v5.29h-2V7.57a2,2,0,0,1,2-2H37.27a2,2,0,0,1,2,2Z"/></svg>