<svg height="300px" width="300px" fill="#000000" xmlns="http://www.w3.org/2000/svg" xmlns:xlink="http://www.w3.org/1999/xlink" version="1.1" x="0px" y="0px" viewBox="0 0 90 90" enable-background="new 0 0 90 90" xml:space="preserve"><g><path d="M56.7,31l4.6-6.1c1.2,0.5,2.6,0.8,4,0.6c4.5-0.5,7.8-4.6,7.3-9.1c-0.5-4.5-4.6-7.8-9.1-7.3c-4.5,0.5-7.8,4.6-7.3,9.1   c0.2,1.6,0.8,3,1.7,4.2l-4.6,6.1C54.5,29.2,55.6,30.1,56.7,31z"/><path d="M80.3,53.5c-2.2,0.3-4.2,1.4-5.5,3l-13.1-5.9c-0.4,1.3-1,2.6-1.7,3.8l13.2,6c-0.1,0.7-0.2,1.5-0.1,2.3   c0.5,4.5,4.6,7.8,9.1,7.3c4.5-0.5,7.8-4.6,7.3-9.1C88.9,56.2,84.8,53,80.3,53.5z"/><path d="M52.4,80.8c-0.4-3.5-3-6.3-6.2-7.1L46,63.4c-0.1,0-0.1,0-0.2,0c-1.3,0.1-2.6,0.1-3.9,0L42,73.8c-3.8,1.1-6.5,4.8-6,8.9   c0.5,4.5,4.6,7.8,9.1,7.3C49.6,89.4,52.9,85.4,52.4,80.8z"/><path d="M15.6,52.3c-1.7-2.5-4.6-4-7.7-3.6c-4.5,0.5-7.8,4.6-7.3,9.1c0.5,4.5,4.6,7.8,9.1,7.3c4.4-0.5,7.7-4.4,7.3-8.9l9.7-3.4   c-0.6-1.2-1.1-2.5-1.4-3.9L15.6,52.3z"/><path d="M28.3,16.3L34,28.6c1.2-0.7,2.4-1.3,3.8-1.8L32,14.6c2.1-1.7,3.3-4.4,3-7.3c-0.5-4.5-4.6-7.8-9.1-7.3   c-4.5,0.5-7.8,4.6-7.3,9.1c0.5,4.5,4.6,7.8,9.1,7.3C27.9,16.4,28.1,16.4,28.3,16.3z"/><circle cx="43.7" cy="44.7" r="14.2"/></g></svg>