<svg height="300px" width="300px" fill="#000000" xmlns="http://www.w3.org/2000/svg" xmlns:xlink="http://www.w3.org/1999/xlink" version="1.1" x="0px" y="0px" viewBox="0 0 100 100" style="enable-background:new 0 0 100 100;" xml:space="preserve"><style type="text/css">
	.st0{fill:none;}
</style><g><path class="st0" d="M61.4,32H69l-9.6-9.6V30C59.4,31.1,60.3,32,61.4,32z"/><path class="st0" d="M61.4,34c-2.2,0-4-1.8-4-4v-9H31.6c-1.1,0-2,0.9-2,2v54c0,1.1,0.9,2,2,2h36.9c1.1,0,2-0.9,2-2V34H61.4z    M61.5,70.3H38.5c-0.6,0-1-0.4-1-1s0.4-1,1-1h23.1c0.6,0,1,0.4,1,1S62.1,70.3,61.5,70.3z M61.5,61.4H38.5c-0.6,0-1-0.4-1-1   c0-0.6,0.4-1,1-1h23.1c0.6,0,1,0.4,1,1C62.5,61,62.1,61.4,61.5,61.4z M61.5,52.6H38.5c-0.6,0-1-0.4-1-1c0-0.6,0.4-1,1-1h23.1   c0.6,0,1,0.4,1,1C62.5,52.1,62.1,52.6,61.5,52.6z M61.5,43.7H38.5c-0.6,0-1-0.4-1-1c0-0.6,0.4-1,1-1h23.1c0.6,0,1,0.4,1,1   C62.5,43.3,62.1,43.7,61.5,43.7z"/><path d="M72.2,32.3l-13-13C59,19.1,58.7,19,58.4,19H31.6c-2.2,0-4,1.8-4,4v54c0,2.2,1.8,4,4,4h36.9c2.2,0,4-1.8,4-4V33   C72.4,32.7,72.3,32.5,72.2,32.3z M59.4,22.4L69,32h-7.6c-1.1,0-2-0.9-2-2V22.4z M68.4,79H31.6c-1.1,0-2-0.9-2-2V23c0-1.1,0.9-2,2-2   h25.9v9c0,2.2,1.8,4,4,4h9v43C70.4,78.1,69.5,79,68.4,79z"/><path d="M61.5,41.7H38.5c-0.6,0-1,0.4-1,1c0,0.6,0.4,1,1,1h23.1c0.6,0,1-0.4,1-1C62.5,42.2,62.1,41.7,61.5,41.7z"/><path d="M61.5,50.6H38.5c-0.6,0-1,0.4-1,1c0,0.6,0.4,1,1,1h23.1c0.6,0,1-0.4,1-1C62.5,51,62.1,50.6,61.5,50.6z"/><path d="M61.5,59.4H38.5c-0.6,0-1,0.4-1,1c0,0.6,0.4,1,1,1h23.1c0.6,0,1-0.4,1-1C62.5,59.9,62.1,59.4,61.5,59.4z"/><path d="M61.5,68.3H38.5c-0.6,0-1,0.4-1,1s0.4,1,1,1h23.1c0.6,0,1-0.4,1-1S62.1,68.3,61.5,68.3z"/></g></svg>